<mxfile host="app.diagrams.net" modified="2023-11-13T15:18:02.871Z" agent="Mozilla/5.0 (Windows NT 10.0; Win64; x64) AppleWebKit/537.36 (KHTML, like Gecko) Chrome/119.0.0.0 Safari/537.36" etag="zqFL_9bQpOViqpBd8tIJ" version="22.1.0" type="device">
  <diagram id="C5RBs43oDa-KdzZeNtuy" name="Page-1">
    <mxGraphModel dx="1917" dy="1572" grid="1" gridSize="10" guides="1" tooltips="1" connect="1" arrows="1" fold="1" page="1" pageScale="1" pageWidth="827" pageHeight="1169" math="0" shadow="0">
      <root>
        <mxCell id="WIyWlLk6GJQsqaUBKTNV-0" />
        <mxCell id="WIyWlLk6GJQsqaUBKTNV-1" parent="WIyWlLk6GJQsqaUBKTNV-0" />
        <mxCell id="nDKYY0DePXrcoRxVsp69-16" style="edgeStyle=orthogonalEdgeStyle;rounded=0;orthogonalLoop=1;jettySize=auto;html=1;startArrow=open;startFill=0;dashed=1;endArrow=none;endFill=0;" edge="1" parent="WIyWlLk6GJQsqaUBKTNV-1" source="zkfFHV4jXpPFQw0GAbJ--0" target="cYTNjgVACT4q4PU91KHz-40">
          <mxGeometry relative="1" as="geometry" />
        </mxCell>
        <mxCell id="nDKYY0DePXrcoRxVsp69-18" style="edgeStyle=orthogonalEdgeStyle;rounded=0;orthogonalLoop=1;jettySize=auto;html=1;startArrow=open;startFill=0;dashed=1;endArrow=none;endFill=0;" edge="1" parent="WIyWlLk6GJQsqaUBKTNV-1" source="zkfFHV4jXpPFQw0GAbJ--0" target="cYTNjgVACT4q4PU91KHz-82">
          <mxGeometry relative="1" as="geometry" />
        </mxCell>
        <mxCell id="zkfFHV4jXpPFQw0GAbJ--0" value="Train" style="swimlane;fontStyle=1;align=center;verticalAlign=top;childLayout=stackLayout;horizontal=1;startSize=26;horizontalStack=0;resizeParent=1;resizeLast=0;collapsible=1;marginBottom=0;rounded=0;shadow=0;strokeWidth=1;" parent="WIyWlLk6GJQsqaUBKTNV-1" vertex="1">
          <mxGeometry x="1560" y="150" width="920" height="440" as="geometry">
            <mxRectangle x="230" y="140" width="160" height="26" as="alternateBounds" />
          </mxGeometry>
        </mxCell>
        <mxCell id="zkfFHV4jXpPFQw0GAbJ--1" value="+ ArrivalTime : System.DateTime&#xa;+ DepatureTime : System.DateTime&#xa;+ distance : double&#xa;+ EndStation : string&#xa;+ IntermidiateStations : System.Collections.Generic.List&lt;string&gt;&#xa;+ Number : int&#xa;+ StartStation : string&#xa;" style="text;align=left;verticalAlign=top;spacingLeft=4;spacingRight=4;overflow=hidden;rotatable=0;points=[[0,0.5],[1,0.5]];portConstraint=eastwest;" parent="zkfFHV4jXpPFQw0GAbJ--0" vertex="1">
          <mxGeometry y="26" width="920" height="114" as="geometry" />
        </mxCell>
        <mxCell id="zkfFHV4jXpPFQw0GAbJ--4" value="" style="line;html=1;strokeWidth=1;align=left;verticalAlign=middle;spacingTop=-1;spacingLeft=3;spacingRight=3;rotatable=0;labelPosition=right;points=[];portConstraint=eastwest;" parent="zkfFHV4jXpPFQw0GAbJ--0" vertex="1">
          <mxGeometry y="140" width="920" height="24" as="geometry" />
        </mxCell>
        <mxCell id="cYTNjgVACT4q4PU91KHz-11" value="&amp;lt;&amp;lt;constructor&amp;gt;&amp;gt;+Train(int number, string startStation, string endStation, List&amp;lt;string&amp;gt; intermediateStations, DateTime departureTime, DateTime arrivalTime, double distance)" style="text;html=1;align=left;verticalAlign=middle;resizable=0;points=[];autosize=1;strokeColor=none;fillColor=none;" parent="zkfFHV4jXpPFQw0GAbJ--0" vertex="1">
          <mxGeometry y="164" width="920" height="30" as="geometry" />
        </mxCell>
        <mxCell id="cYTNjgVACT4q4PU91KHz-5" value="+&amp;nbsp;DisplayListOfTrainsInDataGrid(List&amp;lt;Train&amp;gt; trains, DataGrid trainDataGrid) : void" style="text;html=1;align=left;verticalAlign=middle;resizable=0;points=[];autosize=1;strokeColor=none;fillColor=none;" parent="zkfFHV4jXpPFQw0GAbJ--0" vertex="1">
          <mxGeometry y="194" width="920" height="30" as="geometry" />
        </mxCell>
        <mxCell id="cYTNjgVACT4q4PU91KHz-2" value="+&amp;nbsp;getAverageSpeed(Train train) : double" style="text;html=1;align=left;verticalAlign=middle;resizable=0;points=[];autosize=1;strokeColor=none;fillColor=none;" parent="zkfFHV4jXpPFQw0GAbJ--0" vertex="1">
          <mxGeometry y="224" width="920" height="30" as="geometry" />
        </mxCell>
        <mxCell id="cYTNjgVACT4q4PU91KHz-6" value="+&amp;nbsp;GroupTrains (List&amp;lt;Train&amp;gt; trains) :&amp;nbsp;List&amp;lt;Train&amp;gt; trains" style="text;html=1;align=left;verticalAlign=middle;resizable=0;points=[];autosize=1;strokeColor=none;fillColor=none;" parent="zkfFHV4jXpPFQw0GAbJ--0" vertex="1">
          <mxGeometry y="254" width="920" height="30" as="geometry" />
        </mxCell>
        <mxCell id="cYTNjgVACT4q4PU91KHz-7" value="+ SearchArriveTrainsThroughTime (List&amp;lt;Train&amp;gt; trains, string enteredText, DateTime startDateTime, DateTime endDateTime) :&amp;nbsp;&amp;nbsp;List&amp;lt;Train&amp;gt;" style="text;html=1;align=left;verticalAlign=middle;resizable=0;points=[];autosize=1;strokeColor=none;fillColor=none;" parent="zkfFHV4jXpPFQw0GAbJ--0" vertex="1">
          <mxGeometry y="284" width="920" height="30" as="geometry" />
        </mxCell>
        <mxCell id="cYTNjgVACT4q4PU91KHz-8" value="+&amp;nbsp;SearchLeaveTrainsThroughTime(List&amp;lt;Train&amp;gt; trains, string enteredText, DateTime startDateTime, DateTime endDateTime) :&amp;nbsp;List&amp;lt;Train&amp;gt;" style="text;html=1;align=left;verticalAlign=middle;resizable=0;points=[];autosize=1;strokeColor=none;fillColor=none;" parent="zkfFHV4jXpPFQw0GAbJ--0" vertex="1">
          <mxGeometry y="314" width="920" height="30" as="geometry" />
        </mxCell>
        <mxCell id="cYTNjgVACT4q4PU91KHz-9" value="+&amp;nbsp;SearchThroughStations(List&amp;lt;Train&amp;gt; trains, string enteredText) :&amp;nbsp;&amp;nbsp;List&amp;lt;Train&amp;gt;&amp;nbsp;" style="text;html=1;align=left;verticalAlign=middle;resizable=0;points=[];autosize=1;strokeColor=none;fillColor=none;" parent="zkfFHV4jXpPFQw0GAbJ--0" vertex="1">
          <mxGeometry y="344" width="920" height="30" as="geometry" />
        </mxCell>
        <mxCell id="cYTNjgVACT4q4PU91KHz-3" value="+&amp;nbsp;getListOfTrains (List&amp;lt;Train&amp;gt;) :&amp;nbsp;&amp;nbsp;List&amp;lt;Train&amp;gt;" style="text;html=1;align=left;verticalAlign=middle;resizable=0;points=[];autosize=1;strokeColor=none;fillColor=none;" parent="zkfFHV4jXpPFQw0GAbJ--0" vertex="1">
          <mxGeometry y="374" width="920" height="30" as="geometry" />
        </mxCell>
        <mxCell id="cYTNjgVACT4q4PU91KHz-10" value="+&amp;nbsp;SortTrainsByAverageSpeed(List&amp;lt;Train&amp;gt; trains) :&amp;nbsp;&amp;nbsp;List&amp;lt;Train&amp;gt;" style="text;html=1;align=left;verticalAlign=middle;resizable=0;points=[];autosize=1;strokeColor=none;fillColor=none;" parent="zkfFHV4jXpPFQw0GAbJ--0" vertex="1">
          <mxGeometry y="404" width="920" height="30" as="geometry" />
        </mxCell>
        <mxCell id="nDKYY0DePXrcoRxVsp69-21" style="edgeStyle=orthogonalEdgeStyle;rounded=0;orthogonalLoop=1;jettySize=auto;html=1;startArrow=none;startFill=0;dashed=1;endArrow=open;endFill=0;" edge="1" parent="WIyWlLk6GJQsqaUBKTNV-1" source="cYTNjgVACT4q4PU91KHz-13">
          <mxGeometry relative="1" as="geometry">
            <mxPoint x="1810" y="590" as="targetPoint" />
          </mxGeometry>
        </mxCell>
        <mxCell id="cYTNjgVACT4q4PU91KHz-13" value="InformationMenu" style="swimlane;fontStyle=1;align=center;verticalAlign=top;childLayout=stackLayout;horizontal=1;startSize=20;horizontalStack=0;resizeParent=1;resizeParentMax=0;resizeLast=0;collapsible=1;marginBottom=0;whiteSpace=wrap;html=1;" parent="WIyWlLk6GJQsqaUBKTNV-1" vertex="1">
          <mxGeometry x="1873" y="783" width="195" height="58" as="geometry" />
        </mxCell>
        <mxCell id="cYTNjgVACT4q4PU91KHz-15" value="" style="line;strokeWidth=1;fillColor=none;align=left;verticalAlign=middle;spacingTop=-1;spacingLeft=3;spacingRight=3;rotatable=0;labelPosition=right;points=[];portConstraint=eastwest;strokeColor=inherit;" parent="cYTNjgVACT4q4PU91KHz-13" vertex="1">
          <mxGeometry y="20" width="195" height="8" as="geometry" />
        </mxCell>
        <mxCell id="nDKYY0DePXrcoRxVsp69-9" value="&amp;nbsp;&amp;lt;&amp;lt;constructor&amp;gt;&amp;gt; +&amp;nbsp;InformationMenu()&amp;nbsp;" style="text;html=1;align=center;verticalAlign=middle;resizable=0;points=[];autosize=1;strokeColor=none;fillColor=none;" vertex="1" parent="cYTNjgVACT4q4PU91KHz-13">
          <mxGeometry y="28" width="195" height="30" as="geometry" />
        </mxCell>
        <mxCell id="nDKYY0DePXrcoRxVsp69-7" style="edgeStyle=orthogonalEdgeStyle;rounded=0;orthogonalLoop=1;jettySize=auto;html=1;exitX=0.75;exitY=0;exitDx=0;exitDy=0;entryX=0;entryY=0.5;entryDx=0;entryDy=0;endArrow=none;endFill=0;startArrow=diamondThin;startFill=0;strokeWidth=2;" edge="1" parent="WIyWlLk6GJQsqaUBKTNV-1" source="cYTNjgVACT4q4PU91KHz-21" target="cYTNjgVACT4q4PU91KHz-112">
          <mxGeometry relative="1" as="geometry" />
        </mxCell>
        <mxCell id="cYTNjgVACT4q4PU91KHz-21" value="SearchArriveTrainWindow" style="swimlane;fontStyle=1;align=center;verticalAlign=top;childLayout=stackLayout;horizontal=1;startSize=26;horizontalStack=0;resizeParent=1;resizeParentMax=0;resizeLast=0;collapsible=1;marginBottom=0;whiteSpace=wrap;html=1;" parent="WIyWlLk6GJQsqaUBKTNV-1" vertex="1">
          <mxGeometry x="1115" y="1460" width="490" height="236" as="geometry" />
        </mxCell>
        <mxCell id="cYTNjgVACT4q4PU91KHz-28" value="- _trains : List&amp;lt;Railway.Train&amp;gt;&amp;nbsp;" style="text;html=1;align=left;verticalAlign=middle;resizable=0;points=[];autosize=1;strokeColor=none;fillColor=none;" parent="cYTNjgVACT4q4PU91KHz-21" vertex="1">
          <mxGeometry y="26" width="490" height="30" as="geometry" />
        </mxCell>
        <mxCell id="cYTNjgVACT4q4PU91KHz-30" value="-&amp;nbsp;_trainDataGrid :&amp;nbsp;System.Windows.Controls.DataGrid" style="text;html=1;align=left;verticalAlign=middle;resizable=0;points=[];autosize=1;strokeColor=none;fillColor=none;" parent="cYTNjgVACT4q4PU91KHz-21" vertex="1">
          <mxGeometry y="56" width="490" height="30" as="geometry" />
        </mxCell>
        <mxCell id="cYTNjgVACT4q4PU91KHz-23" value="" style="line;strokeWidth=1;fillColor=none;align=left;verticalAlign=middle;spacingTop=-1;spacingLeft=3;spacingRight=3;rotatable=0;labelPosition=right;points=[];portConstraint=eastwest;strokeColor=inherit;" parent="cYTNjgVACT4q4PU91KHz-21" vertex="1">
          <mxGeometry y="86" width="490" height="30" as="geometry" />
        </mxCell>
        <mxCell id="cYTNjgVACT4q4PU91KHz-34" value="&amp;lt;&amp;lt;constructor&amp;gt;&amp;gt;+&amp;nbsp;SearchArriveTrainWindow((DataGrid trainDataGrid, List&amp;lt;Train&amp;gt; trains)&amp;nbsp;" style="text;html=1;align=left;verticalAlign=middle;resizable=0;points=[];autosize=1;strokeColor=none;fillColor=none;" parent="cYTNjgVACT4q4PU91KHz-21" vertex="1">
          <mxGeometry y="116" width="490" height="30" as="geometry" />
        </mxCell>
        <mxCell id="cYTNjgVACT4q4PU91KHz-33" value="+&amp;nbsp;getList() : List&amp;lt;Train&amp;gt;" style="text;html=1;align=left;verticalAlign=middle;resizable=0;points=[];autosize=1;strokeColor=none;fillColor=none;" parent="cYTNjgVACT4q4PU91KHz-21" vertex="1">
          <mxGeometry y="146" width="490" height="30" as="geometry" />
        </mxCell>
        <mxCell id="cYTNjgVACT4q4PU91KHz-32" value="-&amp;nbsp;Button_Click(object sender, RoutedEventArgs e) :&amp;nbsp;void" style="text;html=1;align=left;verticalAlign=middle;resizable=0;points=[];autosize=1;strokeColor=none;fillColor=none;" parent="cYTNjgVACT4q4PU91KHz-21" vertex="1">
          <mxGeometry y="176" width="490" height="30" as="geometry" />
        </mxCell>
        <mxCell id="cYTNjgVACT4q4PU91KHz-35" value="-&amp;nbsp;SearchTrains(string stationName, DateTime startDate, DateTime endDate) : void" style="text;html=1;align=left;verticalAlign=middle;resizable=0;points=[];autosize=1;strokeColor=none;fillColor=none;" parent="cYTNjgVACT4q4PU91KHz-21" vertex="1">
          <mxGeometry y="206" width="490" height="30" as="geometry" />
        </mxCell>
        <mxCell id="cYTNjgVACT4q4PU91KHz-40" value="FileManager" style="swimlane;fontStyle=1;align=center;verticalAlign=top;childLayout=stackLayout;horizontal=1;startSize=26;horizontalStack=0;resizeParent=1;resizeParentMax=0;resizeLast=0;collapsible=1;marginBottom=0;whiteSpace=wrap;html=1;" parent="WIyWlLk6GJQsqaUBKTNV-1" vertex="1">
          <mxGeometry x="930" y="561" width="420" height="280" as="geometry">
            <mxRectangle x="2110" y="160" width="110" height="30" as="alternateBounds" />
          </mxGeometry>
        </mxCell>
        <mxCell id="cYTNjgVACT4q4PU91KHz-41" value="-&amp;nbsp;pathToRead : string&lt;br&gt;" style="text;strokeColor=none;fillColor=none;align=left;verticalAlign=top;spacingLeft=4;spacingRight=4;overflow=hidden;rotatable=0;points=[[0,0.5],[1,0.5]];portConstraint=eastwest;whiteSpace=wrap;html=1;" parent="cYTNjgVACT4q4PU91KHz-40" vertex="1">
          <mxGeometry y="26" width="420" height="26" as="geometry" />
        </mxCell>
        <mxCell id="cYTNjgVACT4q4PU91KHz-44" value="-&amp;nbsp;pathToWrite : string" style="text;html=1;align=left;verticalAlign=middle;resizable=0;points=[];autosize=1;strokeColor=none;fillColor=none;" parent="cYTNjgVACT4q4PU91KHz-40" vertex="1">
          <mxGeometry y="52" width="420" height="30" as="geometry" />
        </mxCell>
        <mxCell id="cYTNjgVACT4q4PU91KHz-45" value="-&amp;nbsp;trains : List&amp;lt;Train&amp;gt;" style="text;html=1;align=left;verticalAlign=middle;resizable=0;points=[];autosize=1;strokeColor=none;fillColor=none;" parent="cYTNjgVACT4q4PU91KHz-40" vertex="1">
          <mxGeometry y="82" width="420" height="30" as="geometry" />
        </mxCell>
        <mxCell id="cYTNjgVACT4q4PU91KHz-42" value="" style="line;strokeWidth=1;fillColor=none;align=left;verticalAlign=middle;spacingTop=-1;spacingLeft=3;spacingRight=3;rotatable=0;labelPosition=right;points=[];portConstraint=eastwest;strokeColor=inherit;" parent="cYTNjgVACT4q4PU91KHz-40" vertex="1">
          <mxGeometry y="112" width="420" height="18" as="geometry" />
        </mxCell>
        <mxCell id="cYTNjgVACT4q4PU91KHz-50" value="&amp;lt;&amp;lt;constructor&amp;gt;&amp;gt; + FileManager(List&amp;lt;Train&amp;gt; trains)" style="text;html=1;align=left;verticalAlign=middle;resizable=0;points=[];autosize=1;strokeColor=none;fillColor=none;" parent="cYTNjgVACT4q4PU91KHz-40" vertex="1">
          <mxGeometry y="130" width="420" height="30" as="geometry" />
        </mxCell>
        <mxCell id="cYTNjgVACT4q4PU91KHz-49" value="&amp;lt;&amp;lt;constructor&amp;gt;&amp;gt; + FileManager(List&amp;lt;Train&amp;gt; trains, string pathToWrite, int k)" style="text;html=1;align=left;verticalAlign=middle;resizable=0;points=[];autosize=1;strokeColor=none;fillColor=none;" parent="cYTNjgVACT4q4PU91KHz-40" vertex="1">
          <mxGeometry y="160" width="420" height="30" as="geometry" />
        </mxCell>
        <mxCell id="cYTNjgVACT4q4PU91KHz-46" value="&amp;lt;&amp;lt;constructor&amp;gt;&amp;gt; + FileManager(List&amp;lt;Train&amp;gt; trains, string pathToRead)" style="text;html=1;align=left;verticalAlign=middle;resizable=0;points=[];autosize=1;strokeColor=none;fillColor=none;" parent="cYTNjgVACT4q4PU91KHz-40" vertex="1">
          <mxGeometry y="190" width="420" height="30" as="geometry" />
        </mxCell>
        <mxCell id="cYTNjgVACT4q4PU91KHz-51" value="+&amp;nbsp;PrintList() : void" style="text;html=1;align=left;verticalAlign=middle;resizable=0;points=[];autosize=1;strokeColor=none;fillColor=none;" parent="cYTNjgVACT4q4PU91KHz-40" vertex="1">
          <mxGeometry y="220" width="420" height="30" as="geometry" />
        </mxCell>
        <mxCell id="cYTNjgVACT4q4PU91KHz-52" value="+ ReadList() : void" style="text;html=1;align=left;verticalAlign=middle;resizable=0;points=[];autosize=1;strokeColor=none;fillColor=none;" parent="cYTNjgVACT4q4PU91KHz-40" vertex="1">
          <mxGeometry y="250" width="420" height="30" as="geometry" />
        </mxCell>
        <mxCell id="nDKYY0DePXrcoRxVsp69-14" style="edgeStyle=orthogonalEdgeStyle;rounded=0;orthogonalLoop=1;jettySize=auto;html=1;exitX=0.5;exitY=0;exitDx=0;exitDy=0;entryX=0;entryY=0;entryDx=0;entryDy=0;dashed=1;endArrow=open;endFill=0;" edge="1" parent="WIyWlLk6GJQsqaUBKTNV-1" source="cYTNjgVACT4q4PU91KHz-61" target="zkfFHV4jXpPFQw0GAbJ--0">
          <mxGeometry relative="1" as="geometry" />
        </mxCell>
        <mxCell id="cYTNjgVACT4q4PU91KHz-61" value="SearchLeaveTrainWindow" style="swimlane;fontStyle=1;align=center;verticalAlign=top;childLayout=stackLayout;horizontal=1;startSize=26;horizontalStack=0;resizeParent=1;resizeParentMax=0;resizeLast=0;collapsible=1;marginBottom=0;whiteSpace=wrap;html=1;" parent="WIyWlLk6GJQsqaUBKTNV-1" vertex="1">
          <mxGeometry x="1140" y="1030" width="490" height="206" as="geometry" />
        </mxCell>
        <mxCell id="cYTNjgVACT4q4PU91KHz-62" value="-&amp;nbsp;_trainDataGrid :&amp;nbsp;System.Windows.Controls.DataGrid" style="text;strokeColor=none;fillColor=none;align=left;verticalAlign=top;spacingLeft=4;spacingRight=4;overflow=hidden;rotatable=0;points=[[0,0.5],[1,0.5]];portConstraint=eastwest;whiteSpace=wrap;html=1;" parent="cYTNjgVACT4q4PU91KHz-61" vertex="1">
          <mxGeometry y="26" width="490" height="26" as="geometry" />
        </mxCell>
        <mxCell id="cYTNjgVACT4q4PU91KHz-65" value="-&amp;nbsp;_trains : List&amp;lt;Train&amp;gt;" style="text;html=1;align=left;verticalAlign=middle;resizable=0;points=[];autosize=1;strokeColor=none;fillColor=none;" parent="cYTNjgVACT4q4PU91KHz-61" vertex="1">
          <mxGeometry y="52" width="490" height="30" as="geometry" />
        </mxCell>
        <mxCell id="cYTNjgVACT4q4PU91KHz-63" value="" style="line;strokeWidth=1;fillColor=none;align=left;verticalAlign=middle;spacingTop=-1;spacingLeft=3;spacingRight=3;rotatable=0;labelPosition=right;points=[];portConstraint=eastwest;strokeColor=inherit;" parent="cYTNjgVACT4q4PU91KHz-61" vertex="1">
          <mxGeometry y="82" width="490" height="8" as="geometry" />
        </mxCell>
        <mxCell id="cYTNjgVACT4q4PU91KHz-67" value="&amp;lt;&amp;lt;constructor&amp;gt;&amp;gt; +&amp;nbsp;SearchLeaveTrainWindow(DataGrid trainDataGrid, List&amp;lt;Train&amp;gt; trains)" style="text;html=1;align=left;verticalAlign=middle;resizable=0;points=[];autosize=1;strokeColor=none;fillColor=none;" parent="cYTNjgVACT4q4PU91KHz-61" vertex="1">
          <mxGeometry y="90" width="490" height="30" as="geometry" />
        </mxCell>
        <mxCell id="cYTNjgVACT4q4PU91KHz-64" value="-&amp;nbsp;Button_Click(object sender, RoutedEventArgs e) : void" style="text;strokeColor=none;fillColor=none;align=left;verticalAlign=top;spacingLeft=4;spacingRight=4;overflow=hidden;rotatable=0;points=[[0,0.5],[1,0.5]];portConstraint=eastwest;whiteSpace=wrap;html=1;" parent="cYTNjgVACT4q4PU91KHz-61" vertex="1">
          <mxGeometry y="120" width="490" height="26" as="geometry" />
        </mxCell>
        <mxCell id="cYTNjgVACT4q4PU91KHz-68" value="- SearchTrains(string stationName, DateTime startDate, DateTime endDate) : void" style="text;html=1;align=left;verticalAlign=middle;resizable=0;points=[];autosize=1;strokeColor=none;fillColor=none;" parent="cYTNjgVACT4q4PU91KHz-61" vertex="1">
          <mxGeometry y="146" width="490" height="30" as="geometry" />
        </mxCell>
        <mxCell id="cYTNjgVACT4q4PU91KHz-66" value="+ getList() : List&amp;lt;Train&amp;gt;" style="text;html=1;align=left;verticalAlign=middle;resizable=0;points=[];autosize=1;strokeColor=none;fillColor=none;" parent="cYTNjgVACT4q4PU91KHz-61" vertex="1">
          <mxGeometry y="176" width="490" height="30" as="geometry" />
        </mxCell>
        <mxCell id="nDKYY0DePXrcoRxVsp69-3" style="edgeStyle=orthogonalEdgeStyle;rounded=0;orthogonalLoop=1;jettySize=auto;html=1;exitX=0.5;exitY=0;exitDx=0;exitDy=0;entryX=1;entryY=0.5;entryDx=0;entryDy=0;startArrow=diamondThin;startFill=0;endArrow=none;endFill=0;strokeWidth=2;" edge="1" parent="WIyWlLk6GJQsqaUBKTNV-1" source="cYTNjgVACT4q4PU91KHz-69" target="cYTNjgVACT4q4PU91KHz-108">
          <mxGeometry relative="1" as="geometry" />
        </mxCell>
        <mxCell id="cYTNjgVACT4q4PU91KHz-69" value="SearchTrainWindow" style="swimlane;fontStyle=1;align=center;verticalAlign=top;childLayout=stackLayout;horizontal=1;startSize=26;horizontalStack=0;resizeParent=1;resizeParentMax=0;resizeLast=0;collapsible=1;marginBottom=0;whiteSpace=wrap;html=1;" parent="WIyWlLk6GJQsqaUBKTNV-1" vertex="1">
          <mxGeometry x="2320" y="1460" width="490" height="206" as="geometry" />
        </mxCell>
        <mxCell id="cYTNjgVACT4q4PU91KHz-70" value="-&amp;nbsp;_trainDataGrid :&amp;nbsp;System.Windows.Controls.DataGrid" style="text;strokeColor=none;fillColor=none;align=left;verticalAlign=top;spacingLeft=4;spacingRight=4;overflow=hidden;rotatable=0;points=[[0,0.5],[1,0.5]];portConstraint=eastwest;whiteSpace=wrap;html=1;" parent="cYTNjgVACT4q4PU91KHz-69" vertex="1">
          <mxGeometry y="26" width="490" height="26" as="geometry" />
        </mxCell>
        <mxCell id="cYTNjgVACT4q4PU91KHz-71" value="-&amp;nbsp;_trains : List&amp;lt;Train&amp;gt;" style="text;html=1;align=left;verticalAlign=middle;resizable=0;points=[];autosize=1;strokeColor=none;fillColor=none;" parent="cYTNjgVACT4q4PU91KHz-69" vertex="1">
          <mxGeometry y="52" width="490" height="30" as="geometry" />
        </mxCell>
        <mxCell id="cYTNjgVACT4q4PU91KHz-72" value="" style="line;strokeWidth=1;fillColor=none;align=left;verticalAlign=middle;spacingTop=-1;spacingLeft=3;spacingRight=3;rotatable=0;labelPosition=right;points=[];portConstraint=eastwest;strokeColor=inherit;" parent="cYTNjgVACT4q4PU91KHz-69" vertex="1">
          <mxGeometry y="82" width="490" height="8" as="geometry" />
        </mxCell>
        <mxCell id="cYTNjgVACT4q4PU91KHz-73" value="&amp;lt;&amp;lt;constructor&amp;gt;&amp;gt; +&amp;nbsp;SearchTrainWindow(DataGrid dataGrid, List&amp;lt;Train&amp;gt; trains)" style="text;html=1;align=left;verticalAlign=middle;resizable=0;points=[];autosize=1;strokeColor=none;fillColor=none;" parent="cYTNjgVACT4q4PU91KHz-69" vertex="1">
          <mxGeometry y="90" width="490" height="30" as="geometry" />
        </mxCell>
        <mxCell id="cYTNjgVACT4q4PU91KHz-74" value="-&amp;nbsp;Button_Click(object sender, RoutedEventArgs e) : void" style="text;strokeColor=none;fillColor=none;align=left;verticalAlign=top;spacingLeft=4;spacingRight=4;overflow=hidden;rotatable=0;points=[[0,0.5],[1,0.5]];portConstraint=eastwest;whiteSpace=wrap;html=1;" parent="cYTNjgVACT4q4PU91KHz-69" vertex="1">
          <mxGeometry y="120" width="490" height="26" as="geometry" />
        </mxCell>
        <mxCell id="cYTNjgVACT4q4PU91KHz-75" value="- SearchTrains(string stationName, DateTime startDate, DateTime endDate) : void" style="text;html=1;align=left;verticalAlign=middle;resizable=0;points=[];autosize=1;strokeColor=none;fillColor=none;" parent="cYTNjgVACT4q4PU91KHz-69" vertex="1">
          <mxGeometry y="146" width="490" height="30" as="geometry" />
        </mxCell>
        <mxCell id="cYTNjgVACT4q4PU91KHz-76" value="+ getList() : List&amp;lt;Train&amp;gt;" style="text;html=1;align=left;verticalAlign=middle;resizable=0;points=[];autosize=1;strokeColor=none;fillColor=none;" parent="cYTNjgVACT4q4PU91KHz-69" vertex="1">
          <mxGeometry y="176" width="490" height="30" as="geometry" />
        </mxCell>
        <mxCell id="cYTNjgVACT4q4PU91KHz-77" value="MergeSort" style="swimlane;fontStyle=1;align=center;verticalAlign=top;childLayout=stackLayout;horizontal=1;startSize=26;horizontalStack=0;resizeParent=1;resizeParentMax=0;resizeLast=0;collapsible=1;marginBottom=0;whiteSpace=wrap;html=1;" parent="WIyWlLk6GJQsqaUBKTNV-1" vertex="1">
          <mxGeometry x="2745" y="380" width="300" height="90" as="geometry" />
        </mxCell>
        <mxCell id="cYTNjgVACT4q4PU91KHz-79" value="" style="line;strokeWidth=1;fillColor=none;align=left;verticalAlign=middle;spacingTop=-1;spacingLeft=3;spacingRight=3;rotatable=0;labelPosition=right;points=[];portConstraint=eastwest;strokeColor=inherit;" parent="cYTNjgVACT4q4PU91KHz-77" vertex="1">
          <mxGeometry y="26" width="300" height="8" as="geometry" />
        </mxCell>
        <mxCell id="cYTNjgVACT4q4PU91KHz-81" value="+ Merge(List&amp;lt;Train&amp;gt; left, List&amp;lt;Train&amp;gt; right) : List&amp;lt;Train&amp;gt;" style="text;html=1;align=left;verticalAlign=middle;resizable=0;points=[];autosize=1;strokeColor=none;fillColor=none;" parent="cYTNjgVACT4q4PU91KHz-77" vertex="1">
          <mxGeometry y="34" width="300" height="30" as="geometry" />
        </mxCell>
        <mxCell id="cYTNjgVACT4q4PU91KHz-80" value="+&amp;nbsp;Sort(List&amp;lt;Train&amp;gt; trains) : List &amp;lt;Train&amp;gt;" style="text;strokeColor=none;fillColor=none;align=left;verticalAlign=top;spacingLeft=4;spacingRight=4;overflow=hidden;rotatable=0;points=[[0,0.5],[1,0.5]];portConstraint=eastwest;whiteSpace=wrap;html=1;" parent="cYTNjgVACT4q4PU91KHz-77" vertex="1">
          <mxGeometry y="64" width="300" height="26" as="geometry" />
        </mxCell>
        <mxCell id="nDKYY0DePXrcoRxVsp69-5" style="edgeStyle=orthogonalEdgeStyle;rounded=0;orthogonalLoop=1;jettySize=auto;html=1;entryX=1;entryY=0.5;entryDx=0;entryDy=0;endArrow=none;endFill=0;startArrow=diamondThin;startFill=0;strokeWidth=2;endSize=9;" edge="1" parent="WIyWlLk6GJQsqaUBKTNV-1" source="cYTNjgVACT4q4PU91KHz-82" target="cYTNjgVACT4q4PU91KHz-93">
          <mxGeometry relative="1" as="geometry" />
        </mxCell>
        <mxCell id="cYTNjgVACT4q4PU91KHz-82" value="AddRouteWindow" style="swimlane;fontStyle=1;align=center;verticalAlign=top;childLayout=stackLayout;horizontal=1;startSize=26;horizontalStack=0;resizeParent=1;resizeParentMax=0;resizeLast=0;collapsible=1;marginBottom=0;whiteSpace=wrap;html=1;" parent="WIyWlLk6GJQsqaUBKTNV-1" vertex="1">
          <mxGeometry x="2360" y="725" width="490" height="116" as="geometry" />
        </mxCell>
        <mxCell id="cYTNjgVACT4q4PU91KHz-83" value="# NewTrain : Train" style="text;strokeColor=none;fillColor=none;align=left;verticalAlign=top;spacingLeft=4;spacingRight=4;overflow=hidden;rotatable=0;points=[[0,0.5],[1,0.5]];portConstraint=eastwest;whiteSpace=wrap;html=1;" parent="cYTNjgVACT4q4PU91KHz-82" vertex="1">
          <mxGeometry y="26" width="490" height="26" as="geometry" />
        </mxCell>
        <mxCell id="cYTNjgVACT4q4PU91KHz-85" value="" style="line;strokeWidth=1;fillColor=none;align=left;verticalAlign=middle;spacingTop=-1;spacingLeft=3;spacingRight=3;rotatable=0;labelPosition=right;points=[];portConstraint=eastwest;strokeColor=inherit;" parent="cYTNjgVACT4q4PU91KHz-82" vertex="1">
          <mxGeometry y="52" width="490" height="8" as="geometry" />
        </mxCell>
        <mxCell id="cYTNjgVACT4q4PU91KHz-86" value="&amp;lt;&amp;lt;constructor&amp;gt;&amp;gt; +&amp;nbsp;AddRouteWindow()" style="text;html=1;align=left;verticalAlign=middle;resizable=0;points=[];autosize=1;strokeColor=none;fillColor=none;" parent="cYTNjgVACT4q4PU91KHz-82" vertex="1">
          <mxGeometry y="60" width="490" height="30" as="geometry" />
        </mxCell>
        <mxCell id="cYTNjgVACT4q4PU91KHz-87" value="-&amp;nbsp;Button_Click(object sender, RoutedEventArgs e) : void" style="text;strokeColor=none;fillColor=none;align=left;verticalAlign=top;spacingLeft=4;spacingRight=4;overflow=hidden;rotatable=0;points=[[0,0.5],[1,0.5]];portConstraint=eastwest;whiteSpace=wrap;html=1;" parent="cYTNjgVACT4q4PU91KHz-82" vertex="1">
          <mxGeometry y="90" width="490" height="26" as="geometry" />
        </mxCell>
        <mxCell id="nDKYY0DePXrcoRxVsp69-23" style="edgeStyle=orthogonalEdgeStyle;rounded=0;orthogonalLoop=1;jettySize=auto;html=1;exitX=0;exitY=0;exitDx=0;exitDy=0;dashed=1;endArrow=open;endFill=0;" edge="1" parent="WIyWlLk6GJQsqaUBKTNV-1" source="cYTNjgVACT4q4PU91KHz-90">
          <mxGeometry relative="1" as="geometry">
            <mxPoint x="1730" y="590" as="targetPoint" />
          </mxGeometry>
        </mxCell>
        <mxCell id="cYTNjgVACT4q4PU91KHz-90" value="MainWindow" style="swimlane;fontStyle=1;align=center;verticalAlign=top;childLayout=stackLayout;horizontal=1;startSize=26;horizontalStack=0;resizeParent=1;resizeParentMax=0;resizeLast=0;collapsible=1;marginBottom=0;whiteSpace=wrap;html=1;" parent="WIyWlLk6GJQsqaUBKTNV-1" vertex="1">
          <mxGeometry x="1760" y="940" width="490" height="502" as="geometry" />
        </mxCell>
        <mxCell id="cYTNjgVACT4q4PU91KHz-91" value="-&amp;nbsp;fileReadPath : string" style="text;strokeColor=none;fillColor=none;align=left;verticalAlign=top;spacingLeft=4;spacingRight=4;overflow=hidden;rotatable=0;points=[[0,0.5],[1,0.5]];portConstraint=eastwest;whiteSpace=wrap;html=1;" parent="cYTNjgVACT4q4PU91KHz-90" vertex="1">
          <mxGeometry y="26" width="490" height="26" as="geometry" />
        </mxCell>
        <mxCell id="cYTNjgVACT4q4PU91KHz-98" value="- trains : List&amp;lt;Trains&amp;gt;" style="text;strokeColor=none;fillColor=none;align=left;verticalAlign=top;spacingLeft=4;spacingRight=4;overflow=hidden;rotatable=0;points=[[0,0.5],[1,0.5]];portConstraint=eastwest;whiteSpace=wrap;html=1;" parent="cYTNjgVACT4q4PU91KHz-90" vertex="1">
          <mxGeometry y="52" width="490" height="26" as="geometry" />
        </mxCell>
        <mxCell id="cYTNjgVACT4q4PU91KHz-92" value="" style="line;strokeWidth=1;fillColor=none;align=left;verticalAlign=middle;spacingTop=-1;spacingLeft=3;spacingRight=3;rotatable=0;labelPosition=right;points=[];portConstraint=eastwest;strokeColor=inherit;" parent="cYTNjgVACT4q4PU91KHz-90" vertex="1">
          <mxGeometry y="78" width="490" height="8" as="geometry" />
        </mxCell>
        <mxCell id="cYTNjgVACT4q4PU91KHz-93" value="&amp;lt;&amp;lt;constructor&amp;gt;&amp;gt; + MainWindow()" style="text;strokeColor=none;fillColor=none;align=left;verticalAlign=top;spacingLeft=4;spacingRight=4;overflow=hidden;rotatable=0;points=[[0,0.5],[1,0.5]];portConstraint=eastwest;whiteSpace=wrap;html=1;" parent="cYTNjgVACT4q4PU91KHz-90" vertex="1">
          <mxGeometry y="86" width="490" height="26" as="geometry" />
        </mxCell>
        <mxCell id="cYTNjgVACT4q4PU91KHz-99" value="-&amp;nbsp;addTrainButton_Checked(object sender, RoutedEventArgs e) : void" style="text;strokeColor=none;fillColor=none;align=left;verticalAlign=top;spacingLeft=4;spacingRight=4;overflow=hidden;rotatable=0;points=[[0,0.5],[1,0.5]];portConstraint=eastwest;whiteSpace=wrap;html=1;" parent="cYTNjgVACT4q4PU91KHz-90" vertex="1">
          <mxGeometry y="112" width="490" height="26" as="geometry" />
        </mxCell>
        <mxCell id="cYTNjgVACT4q4PU91KHz-102" value="-&amp;nbsp;exit_Click(object sender, RoutedEventArgs e) : void" style="text;strokeColor=none;fillColor=none;align=left;verticalAlign=top;spacingLeft=4;spacingRight=4;overflow=hidden;rotatable=0;points=[[0,0.5],[1,0.5]];portConstraint=eastwest;whiteSpace=wrap;html=1;" parent="cYTNjgVACT4q4PU91KHz-90" vertex="1">
          <mxGeometry y="138" width="490" height="26" as="geometry" />
        </mxCell>
        <mxCell id="cYTNjgVACT4q4PU91KHz-103" value="- getTrainsArriveStationButton_Checked(object sender, RoutedEventArgs e) : void" style="text;strokeColor=none;fillColor=none;align=left;verticalAlign=top;spacingLeft=4;spacingRight=4;overflow=hidden;rotatable=0;points=[[0,0.5],[1,0.5]];portConstraint=eastwest;whiteSpace=wrap;html=1;" parent="cYTNjgVACT4q4PU91KHz-90" vertex="1">
          <mxGeometry y="164" width="490" height="26" as="geometry" />
        </mxCell>
        <mxCell id="cYTNjgVACT4q4PU91KHz-104" value="- getTrainsLeaveStationButton_Checked(object sender, RoutedEventArgs e) : void" style="text;strokeColor=none;fillColor=none;align=left;verticalAlign=top;spacingLeft=4;spacingRight=4;overflow=hidden;rotatable=0;points=[[0,0.5],[1,0.5]];portConstraint=eastwest;whiteSpace=wrap;html=1;" parent="cYTNjgVACT4q4PU91KHz-90" vertex="1">
          <mxGeometry y="190" width="490" height="26" as="geometry" />
        </mxCell>
        <mxCell id="cYTNjgVACT4q4PU91KHz-105" value="- getTrainsThroughStationButton_Checked(object sender, RoutedEventArgs e) : void" style="text;strokeColor=none;fillColor=none;align=left;verticalAlign=top;spacingLeft=4;spacingRight=4;overflow=hidden;rotatable=0;points=[[0,0.5],[1,0.5]];portConstraint=eastwest;whiteSpace=wrap;html=1;" parent="cYTNjgVACT4q4PU91KHz-90" vertex="1">
          <mxGeometry y="216" width="490" height="26" as="geometry" />
        </mxCell>
        <mxCell id="cYTNjgVACT4q4PU91KHz-106" value="- groupTrainsButton_Checked(object sender, RoutedEventArgs e) : void" style="text;strokeColor=none;fillColor=none;align=left;verticalAlign=top;spacingLeft=4;spacingRight=4;overflow=hidden;rotatable=0;points=[[0,0.5],[1,0.5]];portConstraint=eastwest;whiteSpace=wrap;html=1;" parent="cYTNjgVACT4q4PU91KHz-90" vertex="1">
          <mxGeometry y="242" width="490" height="26" as="geometry" />
        </mxCell>
        <mxCell id="cYTNjgVACT4q4PU91KHz-107" value="- info_Click(object sender, RoutedEventArgs e) : void" style="text;strokeColor=none;fillColor=none;align=left;verticalAlign=top;spacingLeft=4;spacingRight=4;overflow=hidden;rotatable=0;points=[[0,0.5],[1,0.5]];portConstraint=eastwest;whiteSpace=wrap;html=1;" parent="cYTNjgVACT4q4PU91KHz-90" vertex="1">
          <mxGeometry y="268" width="490" height="26" as="geometry" />
        </mxCell>
        <mxCell id="cYTNjgVACT4q4PU91KHz-108" value="- MinimizeButton_Click(object sender, RoutedEventArgs e) : void" style="text;strokeColor=none;fillColor=none;align=left;verticalAlign=top;spacingLeft=4;spacingRight=4;overflow=hidden;rotatable=0;points=[[0,0.5],[1,0.5]];portConstraint=eastwest;whiteSpace=wrap;html=1;" parent="cYTNjgVACT4q4PU91KHz-90" vertex="1">
          <mxGeometry y="294" width="490" height="26" as="geometry" />
        </mxCell>
        <mxCell id="cYTNjgVACT4q4PU91KHz-109" value="- OpenCommandBinding_Executed(object sender, RoutedEventArgs e) : void" style="text;strokeColor=none;fillColor=none;align=left;verticalAlign=top;spacingLeft=4;spacingRight=4;overflow=hidden;rotatable=0;points=[[0,0.5],[1,0.5]];portConstraint=eastwest;whiteSpace=wrap;html=1;" parent="cYTNjgVACT4q4PU91KHz-90" vertex="1">
          <mxGeometry y="320" width="490" height="26" as="geometry" />
        </mxCell>
        <mxCell id="cYTNjgVACT4q4PU91KHz-110" value="- openListFromFile_Click(object sender, RoutedEventArgs e) : void" style="text;strokeColor=none;fillColor=none;align=left;verticalAlign=top;spacingLeft=4;spacingRight=4;overflow=hidden;rotatable=0;points=[[0,0.5],[1,0.5]];portConstraint=eastwest;whiteSpace=wrap;html=1;" parent="cYTNjgVACT4q4PU91KHz-90" vertex="1">
          <mxGeometry y="346" width="490" height="26" as="geometry" />
        </mxCell>
        <mxCell id="cYTNjgVACT4q4PU91KHz-111" value="- SaveAsCommandBinding_Executed(object sender, RoutedEventArgs e) : void" style="text;strokeColor=none;fillColor=none;align=left;verticalAlign=top;spacingLeft=4;spacingRight=4;overflow=hidden;rotatable=0;points=[[0,0.5],[1,0.5]];portConstraint=eastwest;whiteSpace=wrap;html=1;" parent="cYTNjgVACT4q4PU91KHz-90" vertex="1">
          <mxGeometry y="372" width="490" height="26" as="geometry" />
        </mxCell>
        <mxCell id="cYTNjgVACT4q4PU91KHz-112" value="- saveListToFile_Click(object sender, RoutedEventArgs e) : void" style="text;strokeColor=none;fillColor=none;align=left;verticalAlign=top;spacingLeft=4;spacingRight=4;overflow=hidden;rotatable=0;points=[[0,0.5],[1,0.5]];portConstraint=eastwest;whiteSpace=wrap;html=1;" parent="cYTNjgVACT4q4PU91KHz-90" vertex="1">
          <mxGeometry y="398" width="490" height="26" as="geometry" />
        </mxCell>
        <mxCell id="cYTNjgVACT4q4PU91KHz-113" value="- sortByAverageSpeedStationButton_Checked(object sender, RoutedEventArgs e) : void" style="text;strokeColor=none;fillColor=none;align=left;verticalAlign=top;spacingLeft=4;spacingRight=4;overflow=hidden;rotatable=0;points=[[0,0.5],[1,0.5]];portConstraint=eastwest;whiteSpace=wrap;html=1;" parent="cYTNjgVACT4q4PU91KHz-90" vertex="1">
          <mxGeometry y="424" width="490" height="26" as="geometry" />
        </mxCell>
        <mxCell id="cYTNjgVACT4q4PU91KHz-114" value="- sortByStartStationButton_Checked(object sender, RoutedEventArgs e) : void" style="text;strokeColor=none;fillColor=none;align=left;verticalAlign=top;spacingLeft=4;spacingRight=4;overflow=hidden;rotatable=0;points=[[0,0.5],[1,0.5]];portConstraint=eastwest;whiteSpace=wrap;html=1;" parent="cYTNjgVACT4q4PU91KHz-90" vertex="1">
          <mxGeometry y="450" width="490" height="26" as="geometry" />
        </mxCell>
        <mxCell id="cYTNjgVACT4q4PU91KHz-115" value="- UpdateTimer_Tick(object sender, RoutedEventArgs e) : void" style="text;strokeColor=none;fillColor=none;align=left;verticalAlign=top;spacingLeft=4;spacingRight=4;overflow=hidden;rotatable=0;points=[[0,0.5],[1,0.5]];portConstraint=eastwest;whiteSpace=wrap;html=1;" parent="cYTNjgVACT4q4PU91KHz-90" vertex="1">
          <mxGeometry y="476" width="490" height="26" as="geometry" />
        </mxCell>
        <mxCell id="nDKYY0DePXrcoRxVsp69-2" style="edgeStyle=orthogonalEdgeStyle;rounded=0;orthogonalLoop=1;jettySize=auto;html=1;exitX=0.536;exitY=0.992;exitDx=0;exitDy=0;endArrow=none;endFill=0;startArrow=diamondThin;startFill=0;strokeWidth=2;exitPerimeter=0;" edge="1" parent="WIyWlLk6GJQsqaUBKTNV-1" source="nDKYY0DePXrcoRxVsp69-9" target="cYTNjgVACT4q4PU91KHz-90">
          <mxGeometry relative="1" as="geometry" />
        </mxCell>
        <mxCell id="nDKYY0DePXrcoRxVsp69-6" style="edgeStyle=orthogonalEdgeStyle;rounded=0;orthogonalLoop=1;jettySize=auto;html=1;exitX=0;exitY=0.5;exitDx=0;exitDy=0;entryX=1;entryY=0.5;entryDx=0;entryDy=0;endArrow=diamondThin;endFill=0;strokeWidth=2;" edge="1" parent="WIyWlLk6GJQsqaUBKTNV-1" source="cYTNjgVACT4q4PU91KHz-93" target="cYTNjgVACT4q4PU91KHz-64">
          <mxGeometry relative="1" as="geometry" />
        </mxCell>
        <mxCell id="nDKYY0DePXrcoRxVsp69-11" style="edgeStyle=orthogonalEdgeStyle;rounded=0;orthogonalLoop=1;jettySize=auto;html=1;entryX=0.5;entryY=0;entryDx=0;entryDy=0;endArrow=none;endFill=0;dashed=1;startArrow=open;startFill=0;" edge="1" parent="WIyWlLk6GJQsqaUBKTNV-1" source="cYTNjgVACT4q4PU91KHz-5" target="cYTNjgVACT4q4PU91KHz-77">
          <mxGeometry relative="1" as="geometry" />
        </mxCell>
        <mxCell id="nDKYY0DePXrcoRxVsp69-20" style="edgeStyle=orthogonalEdgeStyle;rounded=0;orthogonalLoop=1;jettySize=auto;html=1;entryX=1.001;entryY=0.676;entryDx=0;entryDy=0;entryPerimeter=0;dashed=1;endArrow=none;endFill=0;startArrow=open;startFill=0;" edge="1" parent="WIyWlLk6GJQsqaUBKTNV-1" source="cYTNjgVACT4q4PU91KHz-9" target="cYTNjgVACT4q4PU91KHz-73">
          <mxGeometry relative="1" as="geometry">
            <Array as="points">
              <mxPoint x="2990" y="509" />
              <mxPoint x="2990" y="1570" />
            </Array>
          </mxGeometry>
        </mxCell>
        <mxCell id="nDKYY0DePXrcoRxVsp69-22" style="edgeStyle=orthogonalEdgeStyle;rounded=0;orthogonalLoop=1;jettySize=auto;html=1;entryX=0;entryY=0.5;entryDx=0;entryDy=0;endArrow=open;endFill=0;dashed=1;" edge="1" parent="WIyWlLk6GJQsqaUBKTNV-1" source="cYTNjgVACT4q4PU91KHz-34" target="zkfFHV4jXpPFQw0GAbJ--1">
          <mxGeometry relative="1" as="geometry">
            <Array as="points">
              <mxPoint x="900" y="1591" />
              <mxPoint x="900" y="233" />
            </Array>
          </mxGeometry>
        </mxCell>
      </root>
    </mxGraphModel>
  </diagram>
</mxfile>
